<svg xmlns="http://www.w3.org/2000/svg" viewBox="0 0 2667.2875000000004 838" width="2667.2875000000004" height="838" style="--bg:#1a1b26;--fg:#a9b1d6;--line:#3d59a1;--accent:#7aa2f7;--muted:#565f89;background:var(--bg)">
<style>
  @import url('https://fonts.googleapis.com/css2?family=Inter:wght@400;500;600;700&amp;display=swap');
  text { font-family: 'Inter', system-ui, sans-serif; }
  svg {
    /* Derived from --bg and --fg (overridable via --line, --accent, etc.) */
    --_text:          var(--fg);
    --_text-sec:      var(--muted, color-mix(in srgb, var(--fg) 60%, var(--bg)));
    --_text-muted:    var(--muted, color-mix(in srgb, var(--fg) 40%, var(--bg)));
    --_text-faint:    color-mix(in srgb, var(--fg) 25%, var(--bg));
    --_line:          var(--line, color-mix(in srgb, var(--fg) 30%, var(--bg)));
    --_arrow:         var(--accent, color-mix(in srgb, var(--fg) 50%, var(--bg)));
    --_node-fill:     var(--surface, color-mix(in srgb, var(--fg) 3%, var(--bg)));
    --_node-stroke:   var(--border, color-mix(in srgb, var(--fg) 20%, var(--bg)));
    --_group-fill:    var(--bg);
    --_group-hdr:     color-mix(in srgb, var(--fg) 5%, var(--bg));
    --_inner-stroke:  color-mix(in srgb, var(--fg) 12%, var(--bg));
    --_key-badge:     color-mix(in srgb, var(--fg) 10%, var(--bg));
  }
</style>
<defs>
  <marker id="arrowhead" markerWidth="8" markerHeight="4.8" refX="8" refY="2.4" orient="auto">
    <polygon points="0 0, 8 2.4, 0 4.8" fill="var(--_arrow)" />
  </marker>
  <marker id="arrowhead-start" markerWidth="8" markerHeight="4.8" refX="0" refY="2.4" orient="auto-start-reverse">
    <polygon points="8 0, 0 2.4, 8 4.8" fill="var(--_arrow)" />
  </marker>
</defs>
<rect x="962.8499999999999" y="40" width="559.3000000000002" height="279" rx="0" ry="0" fill="var(--_group-fill)" stroke="var(--_node-stroke)" stroke-width="1" />
<rect x="962.8499999999999" y="40" width="559.3000000000002" height="28" rx="0" ry="0" fill="var(--_group-hdr)" stroke="var(--_node-stroke)" stroke-width="1" />
<text x="974.8499999999999" y="54" dy="0.35em" font-size="12" font-weight="600" fill="var(--_text-sec)">&quot;CLI 入口&quot;</text>
<rect x="40.000000000000114" y="363" width="1410.9875" height="279" rx="0" ry="0" fill="var(--_group-fill)" stroke="var(--_node-stroke)" stroke-width="1" />
<rect x="40.000000000000114" y="363" width="1410.9875" height="28" rx="0" ry="0" fill="var(--_group-hdr)" stroke="var(--_node-stroke)" stroke-width="1" />
<text x="52.000000000000114" y="377" dy="0.35em" font-size="12" font-weight="600" fill="var(--_text-sec)">&quot;核心处理流水线&quot;</text>
<rect x="1470.9875" y="363" width="369.1500000000001" height="279" rx="0" ry="0" fill="var(--_group-fill)" stroke="var(--_node-stroke)" stroke-width="1" />
<rect x="1470.9875" y="363" width="369.1500000000001" height="28" rx="0" ry="0" fill="var(--_group-hdr)" stroke="var(--_node-stroke)" stroke-width="1" />
<text x="1482.9875" y="377" dy="0.35em" font-size="12" font-weight="600" fill="var(--_text-sec)">&quot;基础设施&quot;</text>
<rect x="1860.1375" y="196" width="767.1500000000001" height="446" rx="0" ry="0" fill="var(--_group-fill)" stroke="var(--_node-stroke)" stroke-width="1" />
<rect x="1860.1375" y="196" width="767.1500000000001" height="28" rx="0" ry="0" fill="var(--_group-hdr)" stroke="var(--_node-stroke)" stroke-width="1" />
<text x="1872.1375" y="210" dy="0.35em" font-size="12" font-weight="600" fill="var(--_text-sec)">&quot;输入 / 输出&quot;</text>
<rect x="2044.8375" y="686" width="412.05000000000007" height="112" rx="0" ry="0" fill="var(--_group-fill)" stroke="var(--_node-stroke)" stroke-width="1" />
<rect x="2044.8375" y="686" width="412.05000000000007" height="28" rx="0" ry="0" fill="var(--_group-hdr)" stroke="var(--_node-stroke)" stroke-width="1" />
<text x="2056.8375" y="700" dy="0.35em" font-size="12" font-weight="600" fill="var(--_text-sec)">&quot;Blender 端&quot;</text>
<polyline points="1238.5375,132 1238.5375,152 1262.5,152 1262.5,257.5" fill="none" stroke="var(--_line)" stroke-width="0.75" marker-end="url(#arrowhead)" />
<polyline points="1238.5375,132 1238.5375,152 1002.8499999999999,152 1002.8499999999999,437 1115.2875,437" fill="none" stroke="var(--_line)" stroke-width="0.75" marker-end="url(#arrowhead)" />
<polyline points="1238.5375,455 1238.5375,598.5 1518.0125,598.5" fill="none" stroke="var(--_line)" stroke-width="0.75" marker-end="url(#arrowhead)" />
<polyline points="1238.5375,455 1238.5375,475 288.9250000000002,475 288.9250000000002,580.5" fill="none" stroke="var(--_line)" stroke-width="0.75" marker-end="url(#arrowhead)" />
<polyline points="1238.5375,455 1238.5375,475 759.625,475 759.625,580.5" fill="none" stroke="var(--_line)" stroke-width="0.75" marker-end="url(#arrowhead)" />
<polyline points="1238.5375,455 1238.5375,475 1194.575,475 1194.575,580.5" fill="none" stroke="var(--_line)" stroke-width="0.75" marker-end="url(#arrowhead)" />
<polyline points="1262.5,293.5 1262.5,437 1361.7875,437" fill="none" stroke="var(--_line)" stroke-width="0.75" stroke-dasharray="4 4" marker-end="url(#arrowhead)" />
<polyline points="1655.5625,455 1655.5625,475 1563.275,475 1563.275,598.5 515.8500000000001,598.5" fill="none" stroke="var(--_line)" stroke-width="0.75" stroke-dasharray="4 4" marker-end="url(#arrowhead)" />
<polyline points="1655.5625,455 1655.5625,598.5 979.4,598.5" fill="none" stroke="var(--_line)" stroke-width="0.75" stroke-dasharray="4 4" marker-end="url(#arrowhead)" />
<polyline points="1655.5625,455 1655.5625,475 1747.85,475 1747.85,598.5 1385.75,598.5" fill="none" stroke="var(--_line)" stroke-width="0.75" stroke-dasharray="4 4" marker-end="url(#arrowhead)" />
<polyline points="2243.7125,299 2243.7125,437 1361.7875,437" fill="none" stroke="var(--_line)" stroke-width="0.75" marker-end="url(#arrowhead)" />
<polyline points="1238.5375,455 1238.5375,475 1358.3625,475 1358.3625,598.5 1882.1375,598.5" fill="none" stroke="var(--_line)" stroke-width="0.75" marker-end="url(#arrowhead)" />
<polyline points="1238.5375,455 1238.5375,475 1378.3625,475 1378.3625,598.5 2116.8875000000003,598.5" fill="none" stroke="var(--_line)" stroke-width="0.75" marker-end="url(#arrowhead)" />
<polyline points="1238.5375,455 1238.5375,475 1398.3625,475 1398.3625,598.5 2408.8375,598.5" fill="none" stroke="var(--_line)" stroke-width="0.75" marker-end="url(#arrowhead)" />
<polyline points="2250.8625,622 2250.8625,742" fill="none" stroke="var(--_line)" stroke-width="0.75" marker-end="url(#arrowhead)" />
<rect x="1133.1625" y="96" width="210.75000000000003" height="36" rx="0" ry="0" fill="var(--_node-fill)" stroke="var(--_node-stroke)" stroke-width="0.75" />
<rect x="1024.85" y="257.5" width="475.3" height="36" rx="0" ry="0" fill="var(--_node-fill)" stroke="var(--_node-stroke)" stroke-width="0.75" />
<rect x="1115.2875" y="419" width="246.50000000000003" height="36" rx="0" ry="0" fill="var(--_node-fill)" stroke="var(--_node-stroke)" stroke-width="0.75" />
<rect x="62.00000000000017" y="580.5" width="453.85" height="36" rx="0" ry="0" fill="var(--_node-fill)" stroke="var(--_node-stroke)" stroke-width="0.75" />
<rect x="539.85" y="580.5" width="439.55" height="36" rx="0" ry="0" fill="var(--_node-fill)" stroke="var(--_node-stroke)" stroke-width="0.75" />
<rect x="1003.4000000000001" y="580.5" width="382.35" height="36" rx="0" ry="0" fill="var(--_node-fill)" stroke="var(--_node-stroke)" stroke-width="0.75" />
<rect x="1518.0125" y="580.5" width="275.1" height="36" rx="0" ry="0" fill="var(--_node-fill)" stroke="var(--_node-stroke)" stroke-width="0.75" />
<rect x="1492.9875" y="419" width="325.15000000000003" height="36" rx="0" ry="0" fill="var(--_node-fill)" stroke="var(--_node-stroke)" stroke-width="0.75" />
<rect x="2174.0875" y="259" width="139.25" height="33" fill="var(--_node-fill)" stroke="none" />
<line x1="2174.0875" y1="259" x2="2174.0875" y2="292" stroke="var(--_node-stroke)" stroke-width="0.75" />
<line x1="2313.3375" y1="259" x2="2313.3375" y2="292" stroke="var(--_node-stroke)" stroke-width="0.75" />
<ellipse cx="2243.7125" cy="292" rx="69.625" ry="7" fill="var(--_node-fill)" stroke="var(--_node-stroke)" stroke-width="0.75" />
<ellipse cx="2243.7125" cy="259" rx="69.625" ry="7" fill="var(--_node-fill)" stroke="var(--_node-stroke)" stroke-width="0.75" />
<rect x="1882.1375" y="582" width="210.75000000000003" height="33" fill="var(--_node-fill)" stroke="none" />
<line x1="1882.1375" y1="582" x2="1882.1375" y2="615" stroke="var(--_node-stroke)" stroke-width="0.75" />
<line x1="2092.8875000000003" y1="582" x2="2092.8875000000003" y2="615" stroke="var(--_node-stroke)" stroke-width="0.75" />
<ellipse cx="1987.5125" cy="615" rx="105.37500000000001" ry="7" fill="var(--_node-fill)" stroke="var(--_node-stroke)" stroke-width="0.75" />
<ellipse cx="1987.5125" cy="582" rx="105.37500000000001" ry="7" fill="var(--_node-fill)" stroke="var(--_node-stroke)" stroke-width="0.75" />
<rect x="2116.8875000000003" y="582" width="267.95000000000005" height="33" fill="var(--_node-fill)" stroke="none" />
<line x1="2116.8875000000003" y1="582" x2="2116.8875000000003" y2="615" stroke="var(--_node-stroke)" stroke-width="0.75" />
<line x1="2384.8375000000005" y1="582" x2="2384.8375000000005" y2="615" stroke="var(--_node-stroke)" stroke-width="0.75" />
<ellipse cx="2250.8625" cy="615" rx="133.97500000000002" ry="7" fill="var(--_node-fill)" stroke="var(--_node-stroke)" stroke-width="0.75" />
<ellipse cx="2250.8625" cy="582" rx="133.97500000000002" ry="7" fill="var(--_node-fill)" stroke="var(--_node-stroke)" stroke-width="0.75" />
<rect x="2408.8375" y="580.5" width="196.45000000000002" height="36" rx="0" ry="0" fill="var(--_node-fill)" stroke="var(--_node-stroke)" stroke-width="0.75" />
<rect x="2066.8375" y="742" width="368.05" height="36" rx="0" ry="0" fill="var(--_node-fill)" stroke="var(--_node-stroke)" stroke-width="0.75" />
<text x="1238.5375" y="114" text-anchor="middle" dy="0.35em" font-size="13" font-weight="500" fill="var(--_text)">&quot;main.py&lt;br/&gt;日志配置 + 参数校验&quot;</text>
<text x="1262.5" y="275.5" text-anchor="middle" dy="0.35em" font-size="13" font-weight="500" fill="var(--_text)">&quot;config.py&lt;br/&gt;PipelineConfig dataclass&lt;br/&gt;+ argparse CLI 解析&quot;</text>
<text x="1238.5375" y="437" text-anchor="middle" dy="0.35em" font-size="13" font-weight="500" fill="var(--_text)">&quot;pipeline.py&lt;br/&gt;Pipeline 编排器&quot;</text>
<text x="288.9250000000002" y="598.5" text-anchor="middle" dy="0.35em" font-size="13" font-weight="500" fill="var(--_text)">&quot;detector.py&lt;br/&gt;FaceDetector&lt;br/&gt;MediaPipe FaceLandmarker&quot;</text>
<text x="759.625" y="598.5" text-anchor="middle" dy="0.35em" font-size="13" font-weight="500" fill="var(--_text)">&quot;visualizer.py&lt;br/&gt;FrameVisualizer&lt;br/&gt;面部网格 + 文字叠加 + 深度图&quot;</text>
<text x="1194.575" y="598.5" text-anchor="middle" dy="0.35em" font-size="13" font-weight="500" fill="var(--_text)">&quot;exporter.py&lt;br/&gt;DataExporter&lt;br/&gt;JSON / CSV 序列化&quot;</text>
<text x="1655.5625" y="598.5" text-anchor="middle" dy="0.35em" font-size="13" font-weight="500" fill="var(--_text)">&quot;model_manager.py&lt;br/&gt;模型自动下载 + 校验&quot;</text>
<text x="1655.5625" y="437" text-anchor="middle" dy="0.35em" font-size="13" font-weight="500" fill="var(--_text)">&quot;types.py&lt;br/&gt;FrameResult, VideoMetadata&quot;</text>
<text x="2243.7125" y="275.5" text-anchor="middle" dy="0.35em" font-size="13" font-weight="500" fill="var(--_text)">&quot;输入视频&lt;br/&gt;.mp4&quot;</text>
<text x="1987.5125" y="598.5" text-anchor="middle" dy="0.35em" font-size="13" font-weight="500" fill="var(--_text)">&quot;标注视频&lt;br/&gt;_annotated.mp4&quot;</text>
<text x="2250.8625" y="598.5" text-anchor="middle" dy="0.35em" font-size="13" font-weight="500" fill="var(--_text)">&quot;数据文件&lt;br/&gt;_blendshapes.json/.csv&quot;</text>
<text x="2507.0625" y="598.5" text-anchor="middle" dy="0.35em" font-size="13" font-weight="500" fill="var(--_text)">&quot;实时预览窗口&lt;br/&gt;cv2.imshow&quot;</text>
<text x="2250.8625" y="760" text-anchor="middle" dy="0.35em" font-size="13" font-weight="500" fill="var(--_text)">&quot;scripts/blender_import.py&lt;br/&gt;Shape Key 关键帧写入&quot;</text>
</svg>